<svg height="300px" width="300px" viewBox="0 0 512 512" xmlns="http://www.w3.org/2000/svg">
    <path d="m497 90h-482c-8.285156 0-15-6.714844-15-15s6.714844-15 15-15h482c8.285156 0 15 6.714844 15 15s-6.714844 15-15 15zm0 0"
          fill="#a3d4ff"/>
    <path d="m497 332h-482c-8.285156 0-15-6.714844-15-15s6.714844-15 15-15h482c8.285156 0 15 6.714844 15 15s-6.714844 15-15 15zm0 0"
          fill="#a3d4ff"/>
    <path d="m467 0h-422c-24.8125 0-45 20.1875-45 45v302c0 24.8125 20.1875 45 45 45h125.730469l-15.316407 30.632812c-36.84375 4.726563-65.414062 36.261719-65.414062 74.367188 0 8.285156 6.714844 15 15 15h302c8.285156 0 15-6.714844 15-15 0-38.105469-28.570312-69.640625-65.414062-74.367188l-15.316407-30.632812h125.730469c24.8125 0 45-20.1875 45-45v-302c0-24.8125-20.1875-45-45-45zm-77.570312 482h-266.859376c6.191407-17.460938 22.871094-30 42.429688-30h182c19.558594 0 36.238281 12.539062 42.429688 30zm-66.699219-60h-133.460938l15-30h103.460938zm159.269531-75c0 8.269531-6.730469 15-15 15h-422c-8.269531 0-15-6.730469-15-15v-302c0-8.269531 6.730469-15 15-15h422c8.269531 0 15 6.730469 15 15zm0 0"
          fill="#2864f0"/>
    <g fill="#65b1fc">
        <path d="m165 211h-30c-24.8125 0-45-20.1875-45-45v-30c0-8.285156 6.714844-15 15-15s15 6.714844 15 15v30c0 8.269531 6.730469 15 15 15h30c8.285156 0 15 6.714844 15 15s-6.714844 15-15 15zm0 0"/>
        <path d="m256 271c-24.8125 0-45-20.1875-45-45v-60c0-24.8125 20.1875-45 45-45s45 20.1875 45 45v60c0 24.8125-20.1875 45-45 45zm0-120c-8.269531 0-15 6.730469-15 15v60c0 8.269531 6.730469 15 15 15s15-6.730469 15-15v-60c0-8.269531-6.730469-15-15-15zm0 0"/>
        <path d="m165 271c-8.285156 0-15-6.714844-15-15v-90c0-8.285156 6.714844-15 15-15s15 6.714844 15 15v90c0 8.285156-6.714844 15-15 15zm0 0"/>
        <path d="m407 211h-30c-24.8125 0-45-20.1875-45-45v-30c0-8.285156 6.714844-15 15-15s15 6.714844 15 15v30c0 8.269531 6.730469 15 15 15h30c8.285156 0 15 6.714844 15 15s-6.714844 15-15 15zm0 0"/>
        <path d="m407 271c-8.285156 0-15-6.714844-15-15v-90c0-8.285156 6.714844-15 15-15s15 6.714844 15 15v90c0 8.285156-6.714844 15-15 15zm0 0"/>
    </g>
</svg>